<?xml version="1.0" encoding="UTF-8"?>
<svg width="502px" height="135px" viewBox="0 0 502 135" version="1.1" xmlns="http://www.w3.org/2000/svg" xmlns:xlink="http://www.w3.org/1999/xlink">
    <!-- Generator: Sketch 40 (33762) - http://www.bohemiancoding.com/sketch -->
    <title>name</title>
    <desc>Created with Sketch.</desc>
    <defs></defs>
    <g id="latest" stroke="none" stroke-width="1" fill="none" fill-rule="evenodd">
        <g id="name">
            <path d="M34.1004308,81.4013935 L17.7204308,41.9213935 L17.4684308,41.9213935 L10.7484308,81.4013935 L-3.0275692,81.4013935 L7.4724308,21.9293935 L23.1804308,21.9293935 L39.4764308,61.1573935 L39.6444308,61.1573935 L46.3644308,21.9293935 L60.1404308,21.9293935 L49.6404308,81.4013935 L34.1004308,81.4013935 Z M102.812431,81.4013935 L100.796431,69.5573935 L77.8644308,69.5573935 L70.7244308,81.4013935 L54.7644308,81.4013935 L92.6484308,21.9293935 L106.256431,21.9293935 L117.512431,81.4013935 L102.812431,81.4013935 Z M96.2604308,37.2173935 L83.8284308,58.3013935 L99.3684308,58.3013935 L96.2604308,37.2173935 Z M155.312431,33.9413935 L146.912431,81.4013935 L132.968431,81.4013935 L141.284431,33.9413935 L124.652431,33.9413935 L126.836431,21.9293935 L173.708431,21.9293935 L171.608431,33.9413935 L155.312431,33.9413935 Z M169.340431,81.4013935 L179.840431,21.9293935 L217.892431,21.9293935 L215.792431,33.8573935 L191.096431,33.8573935 L189.080431,45.3653935 L212.600431,45.3653935 L210.584431,56.6213935 L187.064431,56.6213935 L184.880431,69.3893935 L211.928431,69.3893935 L209.828431,81.4013935 L169.340431,81.4013935 Z" id="NATE" fill="#FFEF22" transform="translate(107.432431, 51.665394) rotate(-10.000000) translate(-107.432431, -51.665394) "></path>
            <path d="M148.09707,37.528 C155.097105,37.528 160.459052,38.9839854 164.18307,41.896 C167.907089,44.8080146 169.76907,48.867974 169.76907,54.076 C169.76907,57.6040176 169.153077,60.6559871 167.92107,63.232 C166.689064,65.8080129 164.925082,67.9219917 162.62907,69.574 C160.333059,71.2260083 157.575087,72.4439961 154.35507,73.228 C151.135054,74.0120039 147.53709,74.404 143.56107,74.404 L135.91707,74.404 L131.88507,97 L118.02507,97 L128.52507,37.528 L148.09707,37.528 Z M143.81307,63.316 C147.453089,63.316 150.35106,62.7420057 152.50707,61.594 C154.663081,60.4459943 155.74107,58.4160146 155.74107,55.504 C155.74107,54.2159936 155.503073,53.1380043 155.02707,52.27 C154.551068,51.4019957 153.893075,50.7160025 153.05307,50.212 C152.213066,49.7079975 151.205076,49.358001 150.02907,49.162 C148.853065,48.965999 147.565077,48.868 146.16507,48.868 L140.45307,48.868 L137.84907,63.316 L143.81307,63.316 Z M211.09707,97 L209.08107,85.156 L186.14907,85.156 L179.00907,97 L163.04907,97 L200.93307,37.528 L214.54107,37.528 L225.79707,97 L211.09707,97 Z M204.54507,52.816 L192.11307,73.9 L207.65307,73.9 L204.54507,52.816 Z M280.31307,97 L264.52107,97 L254.52507,73.06 L248.81307,73.06 L244.78107,97 L231.17307,97 L241.67307,37.528 L262.00107,37.528 C268.553103,37.528 273.663052,38.9139861 277.33107,41.686 C280.999089,44.4580139 282.83307,48.3359751 282.83307,53.32 C282.83307,58.1360241 281.517084,62.0699847 278.88507,65.122 C276.253057,68.1740153 272.697093,70.2599944 268.21707,71.38 L280.31307,97 Z M256.87707,63.064 C260.629089,63.064 263.54106,62.4480062 265.61307,61.216 C267.685081,59.9839938 268.72107,58.0240134 268.72107,55.336 C268.72107,52.8719877 267.853079,51.1920045 266.11707,50.296 C264.381062,49.3999955 262.057085,48.952 259.14507,48.952 L253.18107,48.952 L250.66107,63.064 L256.87707,63.064 Z M335.41707,97 L319.62507,97 L309.62907,73.06 L303.91707,73.06 L299.88507,97 L286.27707,97 L296.77707,37.528 L317.10507,37.528 C323.657103,37.528 328.767052,38.9139861 332.43507,41.686 C336.103089,44.4580139 337.93707,48.3359751 337.93707,53.32 C337.93707,58.1360241 336.621084,62.0699847 333.98907,65.122 C331.357057,68.1740153 327.801093,70.2599944 323.32107,71.38 L335.41707,97 Z M311.98107,63.064 C315.733089,63.064 318.64506,62.4480062 320.71707,61.216 C322.789081,59.9839938 323.82507,58.0240134 323.82507,55.336 C323.82507,52.8719877 322.957079,51.1920045 321.22107,50.296 C319.485062,49.3999955 317.161085,48.952 314.24907,48.952 L308.28507,48.952 L305.76507,63.064 L311.98107,63.064 Z M378.50907,36.016 C382.989093,36.016 387.007053,36.6319938 390.56307,37.864 C394.119088,39.0960062 397.129058,40.8599885 399.59307,43.156 C402.057083,45.4520115 403.947064,48.2239838 405.26307,51.472 C406.579077,54.7200162 407.23707,58.3319801 407.23707,62.308 C407.23707,67.3480252 406.383079,72.065978 404.67507,76.462 C402.967062,80.858022 400.573086,84.6939836 397.49307,87.97 C394.413055,91.2460164 390.731092,93.8219906 386.44707,95.698 C382.163049,97.5740094 377.445096,98.512 372.29307,98.512 C367.757048,98.512 363.697088,97.8960062 360.11307,96.664 C356.529053,95.4319938 353.491083,93.6680115 350.99907,91.372 C348.507058,89.0759885 346.603077,86.3040162 345.28707,83.056 C343.971064,79.8079838 343.31307,76.1960199 343.31307,72.22 C343.31307,67.1799748 344.181062,62.462022 345.91707,58.066 C347.653079,53.669978 350.089055,49.8340164 353.22507,46.558 C356.361086,43.2819836 360.071049,40.7060094 364.35507,38.83 C368.639092,36.9539906 373.357045,36.016 378.50907,36.016 L378.50907,36.016 Z M373.04907,85.912 C376.129086,85.912 378.887058,85.2820063 381.32307,84.022 C383.759083,82.7619937 385.817062,81.0820105 387.49707,78.982 C389.177079,76.8819895 390.465066,74.4740136 391.36107,71.758 C392.257075,69.0419864 392.70507,66.2560143 392.70507,63.4 C392.70507,61.3279896 392.369074,59.3820091 391.69707,57.562 C391.025067,55.7419909 390.059077,54.1600067 388.79907,52.816 C387.539064,51.4719933 385.95708,50.4080039 384.05307,49.624 C382.149061,48.8399961 379.993082,48.448 377.58507,48.448 C374.561055,48.448 371.831083,49.0919936 369.39507,50.38 C366.959058,51.6680064 364.887079,53.3619895 363.17907,55.462 C361.471062,57.5620105 360.155075,59.9559866 359.23107,62.644 C358.307066,65.3320134 357.84507,68.1039857 357.84507,70.96 C357.84507,73.0320104 358.181067,74.9779909 358.85307,76.798 C359.525074,78.6180091 360.505064,80.1999933 361.79307,81.544 C363.081077,82.8880067 364.663061,83.9519961 366.53907,84.736 C368.41508,85.5200039 370.585058,85.912 373.04907,85.912 L373.04907,85.912 Z M443.60907,49.54 L435.20907,97 L421.26507,97 L429.58107,49.54 L412.94907,49.54 L415.13307,37.528 L462.00507,37.528 L459.90507,49.54 L443.60907,49.54 Z M490.06107,49.54 L481.66107,97 L467.71707,97 L476.03307,49.54 L459.40107,49.54 L461.58507,37.528 L508.45707,37.528 L506.35707,49.54 L490.06107,49.54 Z" id="PARROTT" stroke="#FFEF22" stroke-width="2" fill="#181818" transform="translate(313.241070, 67.264000) rotate(-10.000000) translate(-313.241070, -67.264000) "></path>
        </g>
    </g>
</svg>