<?xml version="1.0" encoding="UTF-8"?>
<svg width="497px" height="130px" viewBox="0 0 497 130" version="1.1" xmlns="http://www.w3.org/2000/svg" xmlns:xlink="http://www.w3.org/1999/xlink">
    <!-- Generator: Sketch 40 (33762) - http://www.bohemiancoding.com/sketch -->
    <title>nate</title>
    <desc>Created with Sketch.</desc>
    <defs></defs>
    <g id="Page-1-Copy" stroke="none" stroke-width="1" fill="none" fill-rule="evenodd">
        <g id="name-copy" transform="translate(-10.000000, 0.000000)" fill="#FFFFFF">
            <path d="M41.1004308,79.4013935 L24.7204308,39.9213935 L24.4684308,39.9213935 L17.7484308,79.4013935 L3.9724308,79.4013935 L14.4724308,19.9293935 L30.1804308,19.9293935 L46.4764308,59.1573935 L46.6444308,59.1573935 L53.3644308,19.9293935 L67.1404308,19.9293935 L56.6404308,79.4013935 L41.1004308,79.4013935 Z M109.812431,79.4013935 L107.796431,67.5573935 L84.8644308,67.5573935 L77.7244308,79.4013935 L61.7644308,79.4013935 L99.6484308,19.9293935 L113.256431,19.9293935 L124.512431,79.4013935 L109.812431,79.4013935 Z M103.260431,35.2173935 L90.8284308,56.3013935 L106.368431,56.3013935 L103.260431,35.2173935 Z M162.312431,31.9413935 L153.912431,79.4013935 L139.968431,79.4013935 L148.284431,31.9413935 L131.652431,31.9413935 L133.836431,19.9293935 L180.708431,19.9293935 L178.608431,31.9413935 L162.312431,31.9413935 Z M176.340431,79.4013935 L186.840431,19.9293935 L224.892431,19.9293935 L222.792431,31.8573935 L198.096431,31.8573935 L196.080431,43.3653935 L219.600431,43.3653935 L217.584431,54.6213935 L194.064431,54.6213935 L191.880431,67.3893935 L218.928431,67.3893935 L216.828431,79.4013935 L176.340431,79.4013935 Z" id="NATE" transform="translate(114.432431, 49.665394) rotate(-10.000000) translate(-114.432431, -49.665394) "></path>
            <path d="M155.09707,35.528 C162.097105,35.528 167.459052,36.9839854 171.18307,39.896 C174.907089,42.8080146 176.76907,46.867974 176.76907,52.076 C176.76907,55.6040176 176.153077,58.6559871 174.92107,61.232 C173.689064,63.8080129 171.925082,65.9219917 169.62907,67.574 C167.333059,69.2260083 164.575087,70.4439961 161.35507,71.228 C158.135054,72.0120039 154.53709,72.404 150.56107,72.404 L142.91707,72.404 L138.88507,95 L125.02507,95 L135.52507,35.528 L155.09707,35.528 Z M150.81307,61.316 C154.453089,61.316 157.35106,60.7420057 159.50707,59.594 C161.663081,58.4459943 162.74107,56.4160146 162.74107,53.504 C162.74107,52.2159936 162.503073,51.1380043 162.02707,50.27 C161.551068,49.4019957 160.893075,48.7160025 160.05307,48.212 C159.213066,47.7079975 158.205076,47.358001 157.02907,47.162 C155.853065,46.965999 154.565077,46.868 153.16507,46.868 L147.45307,46.868 L144.84907,61.316 L150.81307,61.316 Z M218.09707,95 L216.08107,83.156 L193.14907,83.156 L186.00907,95 L170.04907,95 L207.93307,35.528 L221.54107,35.528 L232.79707,95 L218.09707,95 Z M211.54507,50.816 L199.11307,71.9 L214.65307,71.9 L211.54507,50.816 Z M287.31307,95 L271.52107,95 L261.52507,71.06 L255.81307,71.06 L251.78107,95 L238.17307,95 L248.67307,35.528 L269.00107,35.528 C275.553103,35.528 280.663052,36.9139861 284.33107,39.686 C287.999089,42.4580139 289.83307,46.3359751 289.83307,51.32 C289.83307,56.1360241 288.517084,60.0699847 285.88507,63.122 C283.253057,66.1740153 279.697093,68.2599944 275.21707,69.38 L287.31307,95 Z M263.87707,61.064 C267.629089,61.064 270.54106,60.4480062 272.61307,59.216 C274.685081,57.9839938 275.72107,56.0240134 275.72107,53.336 C275.72107,50.8719877 274.853079,49.1920045 273.11707,48.296 C271.381062,47.3999955 269.057085,46.952 266.14507,46.952 L260.18107,46.952 L257.66107,61.064 L263.87707,61.064 Z M342.41707,95 L326.62507,95 L316.62907,71.06 L310.91707,71.06 L306.88507,95 L293.27707,95 L303.77707,35.528 L324.10507,35.528 C330.657103,35.528 335.767052,36.9139861 339.43507,39.686 C343.103089,42.4580139 344.93707,46.3359751 344.93707,51.32 C344.93707,56.1360241 343.621084,60.0699847 340.98907,63.122 C338.357057,66.1740153 334.801093,68.2599944 330.32107,69.38 L342.41707,95 Z M318.98107,61.064 C322.733089,61.064 325.64506,60.4480062 327.71707,59.216 C329.789081,57.9839938 330.82507,56.0240134 330.82507,53.336 C330.82507,50.8719877 329.957079,49.1920045 328.22107,48.296 C326.485062,47.3999955 324.161085,46.952 321.24907,46.952 L315.28507,46.952 L312.76507,61.064 L318.98107,61.064 Z M385.50907,34.016 C389.989093,34.016 394.007053,34.6319938 397.56307,35.864 C401.119088,37.0960062 404.129058,38.8599885 406.59307,41.156 C409.057083,43.4520115 410.947064,46.2239838 412.26307,49.472 C413.579077,52.7200162 414.23707,56.3319801 414.23707,60.308 C414.23707,65.3480252 413.383079,70.065978 411.67507,74.462 C409.967062,78.858022 407.573086,82.6939836 404.49307,85.97 C401.413055,89.2460164 397.731092,91.8219906 393.44707,93.698 C389.163049,95.5740094 384.445096,96.512 379.29307,96.512 C374.757048,96.512 370.697088,95.8960062 367.11307,94.664 C363.529053,93.4319938 360.491083,91.6680115 357.99907,89.372 C355.507058,87.0759885 353.603077,84.3040162 352.28707,81.056 C350.971064,77.8079838 350.31307,74.1960199 350.31307,70.22 C350.31307,65.1799748 351.181062,60.462022 352.91707,56.066 C354.653079,51.669978 357.089055,47.8340164 360.22507,44.558 C363.361086,41.2819836 367.071049,38.7060094 371.35507,36.83 C375.639092,34.9539906 380.357045,34.016 385.50907,34.016 L385.50907,34.016 Z M380.04907,83.912 C383.129086,83.912 385.887058,83.2820063 388.32307,82.022 C390.759083,80.7619937 392.817062,79.0820105 394.49707,76.982 C396.177079,74.8819895 397.465066,72.4740136 398.36107,69.758 C399.257075,67.0419864 399.70507,64.2560143 399.70507,61.4 C399.70507,59.3279896 399.369074,57.3820091 398.69707,55.562 C398.025067,53.7419909 397.059077,52.1600067 395.79907,50.816 C394.539064,49.4719933 392.95708,48.4080039 391.05307,47.624 C389.149061,46.8399961 386.993082,46.448 384.58507,46.448 C381.561055,46.448 378.831083,47.0919936 376.39507,48.38 C373.959058,49.6680064 371.887079,51.3619895 370.17907,53.462 C368.471062,55.5620105 367.155075,57.9559866 366.23107,60.644 C365.307066,63.3320134 364.84507,66.1039857 364.84507,68.96 C364.84507,71.0320104 365.181067,72.9779909 365.85307,74.798 C366.525074,76.6180091 367.505064,78.1999933 368.79307,79.544 C370.081077,80.8880067 371.663061,81.9519961 373.53907,82.736 C375.41508,83.5200039 377.585058,83.912 380.04907,83.912 L380.04907,83.912 Z M450.60907,47.54 L442.20907,95 L428.26507,95 L436.58107,47.54 L419.94907,47.54 L422.13307,35.528 L469.00507,35.528 L466.90507,47.54 L450.60907,47.54 Z M497.06107,47.54 L488.66107,95 L474.71707,95 L483.03307,47.54 L466.40107,47.54 L468.58507,35.528 L515.45707,35.528 L513.35707,47.54 L497.06107,47.54 Z" id="PARROTT" transform="translate(320.241070, 65.264000) rotate(-10.000000) translate(-320.241070, -65.264000) "></path>
        </g>
    </g>
</svg>